<?xml version="1.0" encoding="UTF-8"?>
<svg id="Layer_2" data-name="Layer 2" xmlns="http://www.w3.org/2000/svg" viewBox="0 0 576 229.03">
  <defs>
    <style>
      .cls-1 {
        fill: #ffd200;
      }

      .cls-1, .cls-2 {
        stroke-width: 0px;
      }

      .cls-2 {
        fill: #0e406a;
      }
    </style>
  </defs>
  <g id="Layer_1-2" data-name="Layer 1">
    <g>
      <path class="cls-2" d="M388.06,22.81l-5.44-.43.56-7.1c.03-.36-.09-.72-.32-1-.24-.28-.57-.45-.94-.48l-1.31-.1c-2.04-7.1-8.03-12.47-15.2-13.51-8.12-1.17-16.01,3.23-19.56,10.76l-1.31-.1c-.75-.06-1.42.5-1.48,1.26l-8.52,107.86h0s-.02.22-.02.22c-.04.46.18.87.51,1.15l15.31,29.64c-.46.32-.86.72-1.18,1.23-3.63,9.52-3.05,13.56-14.46,30.22-1.99,3.62-12.65,18.74-25.66,28.87.04-.52.06-1.04.06-1.58,0-4.48-1.63-8.92-3.04-11.37-1.21-2.1-3.45-5.4-5.43-7.45-8.1-8.35-19.01-5.36-19.01-5.36-2.95-24.05-2.25-31.8-4.08-40.47-.5-2.37-4.41-3.18-5.7-1.13-3.21,5.08,1.24,28.12.47,41.13-.52,8.81-2.98,22.13-5.71,25.69-4.18,5.46-9.41,9.99-14.59,9.99-4.6,0-7.92-1.11-8.82-22.89-.13-3.03-.13-6.48-.13-10.2,0-1.93-1.53-4.14-3.83-4.14-2.05,0-3.71,1.79-3.84,4-.51,14.21-6.65,30.48-16.62,30.48-6.65,0-10.23-4.41-10.23-12.41,0-2.48.26-7.86,1.15-12.96,0-.28.13-.55.13-.83,0-2.07-1.54-4.14-3.84-4.14-1.66,0-3.2,1.1-3.71,2.9-3.2,11.31-10.99,30.2-24.42,30.2-6.26,0-13.3-4.83-18.28-13.51,10.48-13.93,18.28-31.72,18.28-45.79,0-7.03-2.56-19.31-12.79-19.31-13.3,0-19.18,19.72-19.18,41.37,0,8.27,1.53,16,4.35,22.62-7.8,8.96-16.49,14.62-23.52,14.62-10.48,0-17.9-7.45-17.9-15.17,0-8.27,5.11-13.79,10.23-13.79,1.66,0,3.45,1.38,5.11,1.38,1.92,0,3.84-1.66,3.84-4.14,0-4.14-5.24-5.52-8.95-5.52-10.48,0-17.9,10.48-17.9,22.06,0,13.51,12.02,23.44,25.57,23.44,0,0,0,0,0,0,0,0,0,0,0,0,0,0,0,0,0,0s0,0,0,0c9.84,0,19.43-6.76,27.48-15.45,5.88,9.24,14.45,15.44,23.65,15.45,0,0,0,0,0,0,0,0,0,0,0,0s0,0,0,0c0,0,0,0,0,0,11.25,0,19.05-8.28,23.9-16.55,2.17,8.27,8.31,13.79,17.01,13.79s14.57-6.21,18.28-13.38c2.17,11.17,7.28,16.13,14.95,16.13,0,0,0,0,0,0,0,0,0,0,0,0s0,0,0,0,0,0,0,0c7.53,0,10.2-2.59,16.95-9.03.26.34,1.8,2.15,1.8,2.15,0,0,2.82,3.39,7.13,5.22,4.07,1.73,6.33,1.65,9.47,1.65,1.77,0,3.54-.17,5.26-.5h0c13.84-1.29,38.1-27.35,41.79-31.79,14.4-17.32,16.75-27.11,21.75-40.21.57-1.49.77-3.01,0-4.29l17.87-27.88c.32-.23.56-.57.59-1l.02-.29h0s2.39-30.23,2.39-30.23l5.44.43s.07,0,.11,0c.71,0,1.31-.55,1.37-1.26l5.35-67.72c.06-.76-.5-1.42-1.26-1.48ZM153.6,183.52c0-22.48,6.9-33.1,11.51-33.1,2.56,0,5.11,4.28,5.11,11.03,0,10.07-5.75,24.96-14.32,37.37-1.41-4.69-2.3-9.79-2.3-15.31ZM278.85,215.49c-4.17-6.89.58-20.81,3.54-22.04,8.85-3.67,19.2,7.34,18.18,16.56-.55,4.96-2.82,8.17-6.76,9.7-1.86.55-3.72.91-5.56,1.02-.13,0-.26,0-.39.01-.24,0-.47,0-.71,0-2.67-.04-3.47-.73-4.58-1.12-1.37-1.05-2.83-2.68-3.72-4.14ZM354.05,150.49c-.31-.11-.64-.17-.96-.2l-14.82-28.68,32.63,2.58-16.86,26.31ZM348.8,11.18c3.23-5.87,9.64-9.23,16.22-8.28,5.77.83,10.66,4.98,12.65,10.56l-28.87-2.28ZM381.34,90.42l-4.07-.32,5.13-64.99,4.07.32-5.13,64.99Z"/>
      <g>
        <path class="cls-2" d="M85.53,92.3c-.41-2.82-.99-4.75-1.73-5.82-1.97.49-4.16,1.22-6.54,2.2-2.39.98-4.92,1.96-7.59,2.94-2.67.98-5.41,1.84-8.21,2.57-2.8.74-5.6,1.1-8.39,1.1-5.92,0-10.64-1.78-14.13-5.33-3.5-3.55-5.25-9.12-5.25-16.72,0-3.75.64-7.06,1.91-9.92,1.27-2.86,2.96-5.25,5.06-7.16,2.1-1.92,4.48-3.37,7.16-4.35,2.67-.98,5.37-1.47,8.08-1.47,3.7,0,6.87.39,9.5,1.16,2.63.78,4.96,1.74,6.97,2.88,2.02,1.14,3.93,2.37,5.74,3.67,1.81,1.31,3.78,2.45,5.92,3.43.33-1.06.57-2.53.74-4.41.16-1.88.27-3.98.31-6.31.04-2.33-.02-4.75-.19-7.29-.17-2.53-.37-4.9-.62-7.1-.25-2.2-.56-4.18-.93-5.94-.37-1.75-.8-3-1.3-3.73-3.13-1.06-7.18-1.92-12.16-2.57-4.98-.65-10.68-.98-17.09-.98-7.9,0-15.08.78-21.54,2.33-6.46,1.55-12.01,4.29-16.66,8.2-4.65,3.92-8.25,9.18-10.8,15.8-2.55,6.61-3.83,14.94-3.83,24.98s1.23,18.1,3.7,24.92c2.47,6.82,5.92,12.33,10.37,16.53,4.44,4.2,9.79,7.24,16.04,9.12,6.25,1.88,13.12,2.82,20.61,2.82,3.54,0,6.99-.23,10.37-.67,3.37-.45,6.56-1,9.57-1.65,3-.66,5.7-1.39,8.08-2.2,2.39-.82,4.36-1.59,5.92-2.33.74-2.45,1.23-5.43,1.48-8.94.25-3.51.31-6.98.19-10.41s-.39-6.55-.8-9.37Z"/>
        <path class="cls-2" d="M120.33,125.05c6.25,1.88,13.12,2.82,20.61,2.82h5.68c7.57,0,14.46-.94,20.67-2.82,6.21-1.88,11.54-4.92,15.98-9.12,4.44-4.2,7.9-9.71,10.37-16.53,2.47-6.82,3.7-15.12,3.7-24.92,0-6.61-.58-12.55-1.73-17.82-1.15-5.27-2.82-9.86-5-13.78-2.18-3.92-4.81-7.2-7.9-9.86-3.09-2.65-6.56-4.75-10.43-6.31-1.89-.73-4.01-1.33-6.36-1.78-2.35-.45-4.75-.82-7.22-1.1-2.47-.29-4.9-.47-7.28-.55-2.39-.08-4.65-.12-6.79-.12s-4.61.04-7.16.12c-2.55.08-5.12.24-7.71.49-2.59.24-5.12.59-7.59,1.04-2.47.45-4.73,1.08-6.79,1.9-7.74,3.02-13.87,8.41-18.39,16.16-4.53,7.76-6.79,18.29-6.79,31.59,0,9.8,1.23,18.1,3.7,24.92,2.47,6.82,5.92,12.33,10.37,16.53,4.44,4.2,9.79,7.24,16.04,9.12ZM125.58,63.77c1.11-2.82,2.59-5.2,4.44-7.16,1.85-1.96,3.97-3.47,6.36-4.53,2.39-1.06,4.85-1.59,7.41-1.59s5.14.53,7.53,1.59c2.39,1.06,4.5,2.57,6.36,4.53,1.85,1.96,3.33,4.35,4.44,7.16,1.11,2.82,1.67,5.98,1.67,9.49,0,6.94-1.59,12.35-4.75,16.23-3.17,3.88-8.25,5.82-15.24,5.82s-11.95-1.94-15.12-5.82c-3.17-3.88-4.75-9.28-4.75-16.23,0-3.51.56-6.67,1.67-9.49Z"/>
        <path class="cls-2" d="M205.8,46.68c.78.33,1.62.53,2.53.61.9.08,1.73.65,2.47,1.71-.91,8-1.5,15.98-1.79,23.94-.29,7.96-.92,15.9-1.91,23.82-.49,3.76-.91,7.57-1.23,11.45-.33,3.88-.49,7.7-.49,11.45,0,.74.12,1.47.37,2.2,1.48.57,3.21,1.04,5.18,1.41,1.97.37,3.97.67,5.99.92,2.02.24,4.03.41,6.05.49,2.02.08,3.85.12,5.49.12,2.39,0,4.75-.06,7.1-.18,2.35-.12,4.67-.51,6.97-1.16.49-1.63.78-3.59.86-5.88.08-2.28.12-4.29.12-6,0-5.22-.17-10.41-.49-15.55-.33-5.14-.49-10.29-.49-15.43v-1.47c0-.57.04-1.14.12-1.71.08-.57.25-1.06.49-1.47.25-.41.66-.61,1.23-.61.49,0,1.13.51,1.91,1.53.78,1.02,1.67,2.33,2.65,3.92.99,1.59,1.99,3.35,3.02,5.27,1.03,1.92,2.02,3.78,2.96,5.57.95,1.8,1.79,3.39,2.53,4.78.74,1.39,1.32,2.37,1.73,2.94,1.07.65,2.22,1.1,3.46,1.35s2.47.37,3.7.37c.99,0,1.98-.08,2.96-.24.99-.16,1.93-.49,2.84-.98.74-.98,1.85-2.82,3.33-5.51s3.06-5.49,4.75-8.39c1.69-2.9,3.33-5.47,4.94-7.71,1.6-2.24,2.86-3.37,3.76-3.37.49,0,.86.24,1.11.73.25.49.39,1.06.43,1.72.04.65.06,1.31.06,1.96v1.35c0,3.59-.18,7.15-.56,10.65-.37,3.51-.56,7.1-.56,10.78v11.76c0,1.47.06,3.18.19,5.14.12,1.96.6,3.59,1.42,4.9,2.3,1.06,4.83,1.76,7.59,2.08,2.75.33,5.37.49,7.84.49,2.96,0,6.05-.18,9.26-.55s6.25-1,9.13-1.9c.41-1.14.74-2.9.99-5.27s.43-4.86.56-7.47c.12-2.61.2-5.14.25-7.59.04-2.45.06-4.37.06-5.75v-8.82c0-3.92-.06-8.28-.19-13.1-.12-4.82-.33-9.82-.62-15-.29-5.18-.7-10.02-1.23-14.51-.54-4.49-1.26-8.37-2.16-11.63-.91-3.26-2.06-5.39-3.46-6.37-.74-.49-1.71-.9-2.9-1.22-1.19-.33-2.47-.61-3.83-.86-1.36-.25-2.67-.41-3.95-.49-1.28-.08-2.37-.12-3.27-.12-1.23,0-2.84.08-4.81.24-1.98.16-3.54.45-4.69.86-2.06.73-4.09,1.98-6.11,3.73-2.02,1.76-3.89,3.72-5.62,5.88-1.73,2.16-3.33,4.39-4.81,6.67-1.48,2.29-2.8,4.37-3.95,6.25-.66,1.14-1.34,2.39-2.04,3.73-.7,1.35-1.5,2.55-2.41,3.61-.74.9-1.73,1.35-2.96,1.35-1.48,0-2.71-.61-3.7-1.84-.66-.82-1.28-1.9-1.85-3.25-.58-1.35-1.11-2.51-1.6-3.49-.82-1.72-1.85-3.71-3.09-6-1.23-2.28-2.57-4.55-4.01-6.8-1.44-2.24-2.98-4.29-4.63-6.12-1.65-1.84-3.37-3.12-5.18-3.86-1.48-.65-3.19-1.12-5.12-1.41-1.93-.28-3.91-.47-5.92-.55-2.02-.08-4.03-.1-6.05-.06-2.02.04-3.85.06-5.49.06-2.71,0-5.18.06-7.41.18-2.22.12-4.11.57-5.68,1.35-1.56.78-2.78,2.02-3.64,3.73-.86,1.71-1.3,4.16-1.3,7.35,0,3.43.27,5.76.8,6.98.53,1.23,1.19,2,1.98,2.33Z"/>
        <path class="cls-2" d="M476.77,92.3c-.41-2.82-.99-4.75-1.73-5.82-1.98.49-4.16,1.22-6.54,2.2-2.39.98-4.92,1.96-7.59,2.94-2.67.98-5.41,1.84-8.21,2.57-2.8.74-5.6,1.1-8.39,1.1-5.92,0-10.64-1.78-14.13-5.33-3.5-3.55-5.25-9.12-5.25-16.72,0-3.75.64-7.06,1.91-9.92,1.28-2.86,2.96-5.25,5.06-7.16,2.1-1.92,4.48-3.37,7.16-4.35,2.67-.98,5.37-1.47,8.08-1.47,3.7,0,6.87.39,9.5,1.16,2.63.78,4.96,1.74,6.97,2.88,2.02,1.14,3.93,2.37,5.74,3.67,1.81,1.31,3.78,2.45,5.92,3.43.33-1.06.57-2.53.74-4.41.16-1.88.27-3.98.31-6.31.04-2.33-.02-4.75-.19-7.29-.17-2.53-.37-4.9-.62-7.1-.25-2.2-.56-4.18-.93-5.94-.37-1.75-.8-3-1.3-3.73-3.13-1.06-7.18-1.92-12.16-2.57-4.98-.65-10.68-.98-17.09-.98-7.9,0-15.08.78-21.54,2.33-6.46,1.55-12.01,4.29-16.66,8.2-4.65,3.92-8.25,9.18-10.8,15.8-2.55,6.61-3.83,14.94-3.83,24.98s1.23,18.1,3.7,24.92c2.47,6.82,5.92,12.33,10.37,16.53,4.44,4.2,9.79,7.24,16.04,9.12,6.25,1.88,13.12,2.82,20.61,2.82,3.54,0,6.99-.23,10.37-.67,3.37-.45,6.56-1,9.56-1.65,3-.66,5.7-1.39,8.08-2.2,2.39-.82,4.36-1.59,5.93-2.33.74-2.45,1.23-5.43,1.48-8.94.25-3.51.31-6.98.18-10.41-.12-3.43-.39-6.55-.8-9.37Z"/>
        <path class="cls-2" d="M573.35,87.52c-1.77-2.98-4.03-5.67-6.79-8.08-2.76-2.41-5.78-4.55-9.07-6.43-3.29-1.88-6.46-3.47-9.5-4.78-3.95-1.71-7.3-3.31-10.06-4.77-2.76-1.47-4.13-2.9-4.13-4.29s1.42-2.45,4.26-3.18c2.84-.74,6.97-1.1,12.4-1.1,5.02,0,9.4.35,13.14,1.04,3.74.69,7.14,1.74,10.18,3.12.41-1.14.7-2.69.86-4.65.16-1.96.25-4.1.25-6.43s-.06-4.73-.19-7.22c-.12-2.49-.33-4.84-.62-7.04-.29-2.2-.62-4.14-.99-5.82-.37-1.67-.8-2.88-1.3-3.61-.91-.33-2.26-.63-4.07-.92-1.81-.29-3.85-.55-6.11-.8-2.26-.25-4.63-.43-7.1-.55-2.47-.12-4.86-.18-7.16-.18-12.76,0-23.16.61-31.23,1.84-8.06,1.22-14.38,3.02-18.94,5.39-4.57,2.37-7.67,5.35-9.32,8.94-1.65,3.59-2.47,7.72-2.47,12.37,0,4.16,1.01,7.86,3.02,11.08,2.02,3.23,4.57,6.1,7.65,8.63,3.09,2.53,6.46,4.69,10.12,6.49,3.66,1.8,7.14,3.31,10.43,4.53,4.03,1.55,7.43,2.94,10.18,4.16,2.75,1.22,4.13,2.53,4.13,3.92,0,2.04-3.05,3.06-9.13,3.06-2.8,0-5.88-.2-9.26-.61-3.37-.41-6.71-.9-10-1.47-3.29-.57-6.4-1.2-9.32-1.9-2.92-.69-5.37-1.29-7.34-1.78-.74,1.06-1.34,3-1.79,5.82-.45,2.82-.74,5.94-.86,9.37-.12,3.43-.06,6.9.19,10.41.25,3.51.74,6.49,1.48,8.94,1.56.74,3.95,1.47,7.16,2.2,3.21.73,6.77,1.41,10.68,2.02,3.91.61,7.96,1.1,12.16,1.47,4.2.37,8.06.55,11.6.55,32.99,0,49.49-10,49.49-30,0-3.51-.88-6.75-2.65-9.73Z"/>
      </g>
      <polygon class="cls-1" points="353.58 151.23 370.91 124.18 338.27 121.6 353.58 151.23"/>
      <rect class="cls-1" x="349.28" y="55.73" width="65.19" height="4.08" transform="translate(294.21 433.91) rotate(-85.48)"/>
      <rect class="cls-1" x="346.2" y="32.48" width="28.14" height="34.75" transform="translate(282.2 405.08) rotate(-85.48)"/>
      <path class="cls-1" d="M365.03,2.9c-6.59-.95-13,2.4-16.22,8.28l28.87,2.28c-1.99-5.58-6.87-9.73-12.65-10.56Z"/>
    </g>
  </g>
</svg>